<?xml version="1.0" standalone="no"?><!DOCTYPE svg PUBLIC "-//W3C//DTD SVG 1.1//EN" "http://www.w3.org/Graphics/SVG/1.1/DTD/svg11.dtd"><svg t="1626878575016" class="icon" viewBox="0 0 1024 1024" version="1.1" xmlns="http://www.w3.org/2000/svg" p-id="8215" width="256" height="256" xmlns:xlink="http://www.w3.org/1999/xlink"><defs><style type="text/css">@font-face { font-family: feedback-iconfont; src: url("//at.alicdn.com/t/font_1031158_1uhr8ri0pk5.eot?#iefix") format("embedded-opentype"), url("//at.alicdn.com/t/font_1031158_1uhr8ri0pk5.woff2") format("woff2"), url("//at.alicdn.com/t/font_1031158_1uhr8ri0pk5.woff") format("woff"), url("//at.alicdn.com/t/font_1031158_1uhr8ri0pk5.ttf") format("truetype"), url("//at.alicdn.com/t/font_1031158_1uhr8ri0pk5.svg#iconfont") format("svg"); }
</style></defs><path d="M512 703.909134a153.624231 153.624231 0 1 1 153.624231-153.624231 153.86654 153.86654 0 0 1-153.624231 153.624231z m0-255.878845a102.496924 102.496924 0 1 0 102.254614 102.254614 102.739233 102.739233 0 0 0-102.254614-102.254614z m0-140.781827a153.624231 153.624231 0 1 1 153.624231-153.624231 154.10885 154.10885 0 0 1-153.624231 153.624231z m0-256.121155a102.496924 102.496924 0 1 0 102.254614 102.496924 102.739233 102.739233 0 0 0-102.254614-102.496924z m358.375769 908.902982a153.624231 153.624231 0 1 1 153.624231-153.624231 154.10885 154.10885 0 0 1-153.624231 153.624231z m0-256.121155a102.496924 102.496924 0 1 0 102.254614 102.496924 102.739233 102.739233 0 0 0-102.254614-102.496924zM153.624231 960.030289a153.624231 153.624231 0 1 1 153.624231-153.624231 154.10885 154.10885 0 0 1-153.624231 153.624231z m0-256.121155a102.496924 102.496924 0 1 0 102.254614 102.496924 102.739233 102.739233 0 0 0-102.254614-102.496924z m358.375769 320.090866a89.65452 89.65452 0 1 1 89.65452-89.65452 89.896829 89.896829 0 0 1-89.65452 89.65452z m0-128.181732a38.527212 38.527212 0 1 0 0 76.812115 38.527212 38.527212 0 0 0 0-76.812115z m358.375769-454.330336a89.65452 89.65452 0 1 1 89.65452-89.41221 89.65452 89.65452 0 0 1-89.65452 89.41221z m0-127.939423a38.527212 38.527212 0 1 0 38.284903 38.527213 38.527212 38.527212 0 0 0-38.284903-38.527213zM153.624231 441.487932A89.65452 89.65452 0 1 1 242.309513 352.075722a89.896829 89.896829 0 0 1-89.65452 89.41221z m0-127.939423a38.527212 38.527212 0 1 0 38.284903 38.527213 38.527212 38.527212 0 0 0-38.284903-38.527213z" p-id="8216"></path><path d="M512 448.030289a25.927118 25.927118 0 0 1-25.684808-25.684809v-140.781826a25.684808 25.684808 0 1 1 51.127307 0v140.781826a25.684808 25.684808 0 0 1-25.442499 25.684809z m0 447.787979a25.684808 25.684808 0 0 1-25.684808-24.230951V678.466635a25.684808 25.684808 0 1 1 51.127307 0v191.909134a24.230951 24.230951 0 0 1-25.442499 24.230951z m106.131566-390.845244a25.684808 25.684808 0 0 1-11.388547-48.461902l195.059158-96.923805a25.684808 25.684808 0 0 1 34.65026 11.388547 25.927118 25.927118 0 0 1-12.600094 34.165641l-193.84761 96.923805a33.681022 33.681022 0 0 1-11.630857 2.665405z m-212.990061 0a25.442499 25.442499 0 0 1-11.630857-2.665405l-195.786086-96.923805a25.684808 25.684808 0 0 1-11.388547-34.65026 24.230951 24.230951 0 0 1 34.407951-11.388547l195.301467 96.923805a25.684808 25.684808 0 0 1 11.388547 34.65026 24.230951 24.230951 0 0 1-22.292475 14.053952z m360.314245 248.85187a24.230951 24.230951 0 0 1-14.053952-4.361572l-151.685754-99.831519a24.230951 24.230951 0 0 1 28.107903-42.404165l151.685755 99.83152a25.442499 25.442499 0 0 1-14.053952 46.765736z m-507.638429 0a24.230951 24.230951 0 0 1-21.080927-11.388548 25.927118 25.927118 0 0 1 7.026976-35.377188l151.685754-99.83152a24.230951 24.230951 0 0 1 28.107904 42.404165l-151.685755 99.831519a24.230951 24.230951 0 0 1-14.053952 4.361572z" p-id="8217"></path></svg>